Coordinates
version=1
nRows=19
nColumns=24
inDegrees=yes

Units are S.I. units (second, meters, Newtons, ...)
Angles are in degrees.

endheader
time	pelvis_tilt	pelvis_list	pelvis_rotation	pelvis_tx	pelvis_ty	pelvis_tz	hip_flexion_r	hip_adduction_r	hip_rotation_r	knee_angle_r	ankle_angle_r	subtalar_angle_r	mtp_angle_r	hip_flexion_l	hip_adduction_l	hip_rotation_l	knee_angle_l	ankle_angle_l	subtalar_angle_l	mtp_angle_l	lumbar_extension	lumbar_bending	lumbar_rotation
      4.55000000	     -8.84614953	      5.44131866	     -2.32389097	     -0.89769941	     -0.01225335	     -0.33655063	     27.51372575	    -10.22925374	     -5.28247312	    -62.01805110	    -12.67311227	      2.66629174	     24.61655528	     13.54459961	      9.97069834	      7.36248713	    -14.28407217	      7.15356335	      5.67747625	    -10.82015679	     10.45478008	     -9.99977490	     -5.95464589
      4.55500000	     -8.82560926	      5.18245713	     -2.15585843	     -0.89194638	     -0.01180235	     -0.33722373	     28.09300280	     -9.95024250	     -5.58291427	    -61.38911499	    -11.97389936	      3.09924640	     24.93079027	     12.87526433	      9.79585735	      7.76030614	    -13.92820547	      7.42692204	      5.55950197	    -11.03024107	     10.34250372	     -9.76215938	     -6.35792443
      4.56000000	     -8.79076339	      4.93649143	     -1.97637498	     -0.88617252	     -0.01139924	     -0.33790859	     28.63256883	     -9.69904132	     -5.91288799	    -60.69447055	    -11.28431382	      3.51988623	     25.19953829	     12.18165178	      9.63276658	      8.18917060	    -13.55634636	      7.69835476	      5.41516810	    -11.29982727	     10.22145058	     -9.53934752	     -6.73059601
      4.56500000	     -8.82715738	      4.68323740	     -1.87441897	     -0.88041752	     -0.01114692	     -0.33844937	     29.26033258	     -9.37480293	     -6.15526066	    -59.94601603	    -10.67095651	      3.83857568	     25.36856220	     11.58268077	      9.42143497	      8.45969803	    -13.19256797	      7.97912593	      5.36038045	    -11.38516224	     10.19711569	     -9.28483089	     -6.98304562
      4.57000000	     -8.71648889	      4.49017142	     -1.61863309	     -0.87462706	     -0.01079919	     -0.33922353	     29.65798541	     -9.23978890	     -6.57945712	    -59.13337057	     -9.94209927	      4.25977585	     25.50306074	     10.78630216	      9.32730190	      9.02023034	    -12.78985950	      8.24826135	      5.13483844	    -11.92252924	      9.98518221	     -9.13910357	     -7.41122993
      4.57500000	     -8.74395905	      4.28957076	     -1.43666096	     -0.86891651	     -0.01068490	     -0.33985429	     30.22443093	     -9.01730154	     -6.87493656	    -58.27335549	     -9.28907366	      4.61824041	     25.60375516	     10.19572530	      9.17541499	      9.26928840	    -12.44469771	      8.51894704	      5.15702748	    -12.05789277	      9.93094854	     -8.96315803	     -7.80053270
      4.58000000	     -8.73604116	      4.10690342	     -1.24251070	     -0.86318461	     -0.01060365	     -0.34045787	     30.72499607	     -8.82408674	     -7.19738142	    -57.35301101	     -8.64106870	      4.93475113	     25.62740917	      9.55035272	      9.03786390	      9.56517604	    -12.06973260	      8.78552070	      5.15170237	    -12.20800890	      9.84203226	     -8.81723395	     -8.16748362
      4.58500000	     -8.68360655	      3.96242675	     -1.02286459	     -0.85749250	     -0.01057220	     -0.34103267	     31.16172726	     -8.67783517	     -7.52404768	    -56.39569389	     -7.96391572	      5.21864576	     25.51421095	      8.84954497	      8.93745029	      9.95041811	    -11.68225861	      9.06833693	      5.12320954	    -12.42846432	      9.69312807	     -8.73049504	     -8.55624771
      4.59000000	     -8.64496690	      3.81715610	     -0.85661138	     -0.85176567	     -0.01060314	     -0.34156139	     31.59966888	     -8.50063068	     -7.81622460	    -55.38196024	     -7.28503968	      5.46346724	     25.16551432	      8.15395483	      8.82445376	     10.28490209	    -11.27375361	      9.33958314	      5.02509451	    -12.75920856	      9.57697143	     -8.61889482	     -8.85277336
      4.59500000	     -8.68315660	      3.69385489	     -0.65425839	     -0.84607352	     -0.01077557	     -0.34211297	     32.09702280	     -8.36048558	     -8.10783584	    -54.29313364	     -6.69607791	      5.70184893	     25.09293537	      7.57635918	      8.72497200	     10.48053302	    -10.90324849	      9.56671717	      5.10403080	    -12.78896199	      9.53958498	     -8.54222622	     -9.21631870
      4.60000000	     -8.63762601	      3.58478603	     -0.44072059	     -0.84041613	     -0.01094752	     -0.34261814	     32.48117958	     -8.23722551	     -8.41440987	    -53.16422979	     -6.07077702	      5.89260525	     24.81757238	      6.89070323	      8.63511694	     10.78678613	    -10.50145637	      9.79326456	      5.11642237	    -12.85298515	      9.39318885	     -8.49347210	     -9.59776631
      4.60500000	     -8.61201811	      3.48397360	     -0.25154710	     -0.83473275	     -0.01118903	     -0.34308244	     32.86628581	     -8.10506637	     -8.69681949	    -51.97609694	     -5.45753873	      6.07939012	     24.44968384	      6.22425250	      8.54641889	     11.05979941	    -10.09139057	      9.98422932	      5.07980443	    -12.91089383	      9.28018907	     -8.44547793	     -9.93656107
      4.61000000	     -8.59273025	      3.39577663	     -0.06755209	     -0.82906814	     -0.01149114	     -0.34350836	     33.23620519	     -7.97428196	     -8.95880916	    -50.72914952	     -4.86343028	      6.25362644	     24.04052783	      5.57096536	      8.46405022	     11.32229550	     -9.68622102	     10.14786927	      5.03667629	    -12.94344849	      9.17175632	     -8.41380097	    -10.25843341
      4.61500000	     -8.56828838	      3.31781968	      0.10624966	     -0.82341069	     -0.01185491	     -0.34389730	     33.58010734	     -7.84220981	     -9.20009830	    -49.43071879	     -4.28124065	      6.42882832	     23.58102662	      4.91322442	      8.38651145	     11.58636982	     -9.27946418	     10.29934227	      4.96847762	    -12.95286196	      9.05696996	     -8.39231994	    -10.57680730
      4.62000000	     -8.64944333	      3.25505772	      0.21140692	     -0.81778556	     -0.01239223	     -0.34419203	     34.03377427	     -7.66701883	     -9.32234459	    -48.05202040	     -3.81343962	      6.56611022	     23.39839218	      4.39970604	      8.31509041	     11.71019399	     -8.91600642	     10.46274222	      4.95740701	    -12.92912865	      9.06778513	     -8.37438617	    -10.79205059
      4.62500000	     -8.52573934	      3.18209742	      0.43466215	     -0.81213634	     -0.01275052	     -0.34459869	     34.20030143	     -7.57797730	     -9.64636753	    -46.64566560	     -3.23265197	      6.78366007	     22.78742052	      3.62816053	      8.23732514	     12.07026681	     -8.49800403	     10.57836937	      4.84185788	    -12.91558983	      8.82636809	     -8.37449264	    -11.18687170
      4.63000000	     -8.50342817	      3.11986311	      0.56960458	     -0.80649965	     -0.01327797	     -0.34486049	     34.47550895	     -7.42173243	     -9.82090031	    -45.18380155	     -2.68297659	      7.04857684	     22.20167749	      2.98415288	      8.15905414	     12.33609641	     -8.10294688	     10.67457776	      4.68848672	    -12.88189927	      8.71140333	     -8.37336350	    -11.46056470
      4.63500000	     -8.61282510	      3.08631261	      0.64066266	     -0.80093281	     -0.01402641	     -0.34502933	     34.89477148	     -7.23421114	     -9.85009688	    -43.64631918	     -2.28899492	      7.26159819	     22.03814106	      2.53575700	      8.10937911	     12.42802522	     -7.79668009	     10.83929063	      4.66329396	    -12.83715805	      8.73999738	     -8.39167483	    -11.65119352
      4.64000000	     -8.48195437	      3.00597971	      0.82864980	     -0.79531164	     -0.01451629	     -0.34531724	     34.96879766	     -7.09575732	    -10.10193714	    -42.05986340	     -1.75212204	      7.61270174	     21.43767141	      1.78500670	      8.00515407	     12.75577787	     -7.42297725	     10.93687085	      4.53329001	    -12.77821316	      8.48663523	     -8.38586314	    -12.00721590
